<?xml version="1.0" encoding="UTF-8" standalone="no"?>
<!DOCTYPE svg PUBLIC "-//W3C//DTD SVG 1.1//EN" "http://www.w3.org/Graphics/SVG/1.1/DTD/svg11.dtd">
<svg width="100%" height="100%" viewBox="0 0 680 196" version="1.1" xmlns="http://www.w3.org/2000/svg" xmlns:xlink="http://www.w3.org/1999/xlink" xml:space="preserve" xmlns:serif="http://www.serif.com/" style="fill-rule:evenodd;clip-rule:evenodd;stroke-linejoin:round;stroke-miterlimit:2;">
    <g>
        <path d="M0,0L0,195.2L680,195.2L680,123.2L679.2,123.2C679.138,145.617 665.138,160.21 642.4,157.453L624,150.4C622.586,157.328 606.985,159.351 605.054,151.985C602.222,141.174 604.8,126.391 604.8,115.2C604.8,92.473 602.317,68.171 604.887,45.604C605.614,39.224 626.411,37.909 629.578,42.654C631.366,45.334 630.4,50.526 630.4,53.6L630.4,80C653.112,70.685 678.962,77.574 679.2,106.4L680,106.4L680,0L0,0Z" style="fill:rgb(252,252,252);"/>
        <g transform="matrix(1,-0.000898491,0.000898491,1,-0.0878776,0.305919)">
            <path d="M76,171.2C68.896,171.346 62.136,173.053 55.2,170.498C45.119,166.786 43.276,158.159 37.473,150.412L27.2,140C31.288,139.03 34.438,139.544 38.4,140.8L36,141.6L38.4,144L38.4,141.6L39.2,141.6C48.658,149.366 52.773,161.647 67.2,159.769C69.736,159.438 73.458,159.084 75.253,157.038L81.6,144C73.725,142.103 65.62,141.287 58.4,137.248C40.858,127.435 34.594,106.208 37.86,87.2L46.217,69.6C48.285,64.123 40.835,44.678 50.486,42.726C59.756,40.851 66.969,50.649 75.2,52.049L94.4,49.612L124.8,52.152C131.788,51.145 143.35,38.271 150.865,43.223C158.73,48.406 152.041,62.039 153.723,68.8L162.858,91.2C165.454,109.33 157.16,129.051 140.8,137.688L118.4,144C124.791,155.526 124.8,165.44 124.8,178.4C124.8,182.161 123.17,191.003 126.747,193.457C130.958,196.346 138.49,191.943 142.4,190.153C156.455,183.718 168.687,173.721 178.231,161.6C206.212,126.066 206.047,73.711 177.754,38.4C169.415,27.993 158.974,19.177 147.2,12.934C93.746,-15.412 24.193,11.007 5.623,69.6C-1.43,91.852 -0.198,114.983 7.756,136.8C15.554,158.189 32.293,176.316 52,187.31C56.673,189.918 69.883,198.002 74.606,192.453C78.193,188.239 76,176.487 76,171.2M278.4,110.4L294.4,110.4L294.4,133.6C285.288,133.788 275.926,136.085 268.003,129.974C251.894,117.55 251.72,77.947 268.031,65.543C279.806,56.589 296.634,60.561 309.6,64C311.621,59.872 316.288,47.771 314.239,43.371C311.963,38.484 301.39,37.988 296.8,37.272C278.716,34.454 255.69,36.674 243.614,52C235.52,62.273 233.33,74.643 231.661,87.2C230.063,99.218 230.827,113.19 234.42,124.8C242.702,151.561 267.662,160.482 293.6,157.56C300.743,156.755 313.754,155.158 318.606,149.174C320.709,146.581 320,142.307 320,139.2L320,114.4C320,108.426 322.535,94.886 319.178,89.854C317.547,87.41 313.72,88.001 311.2,88L288,88C285.616,88 280.918,87.142 279.222,89.282C276.154,93.157 278.4,105.54 278.4,110.4M454.4,106.4L487.2,106.4L487.2,140C487.2,143.921 485.925,150.574 487.682,154.146C489.638,158.12 511.042,157.508 511.882,152.713L512,126.4L512,72.8C512,64.95 514.978,49.686 511.518,42.654C509.862,39.29 489.338,39.29 487.682,42.654L487.2,55.2L487.2,84L454.4,84L454.4,55.2L453.918,42.654C452.05,38.859 430.986,39.416 429.282,43.319C425.898,51.07 428.8,65.937 428.8,74.4L428.8,126.4L428.918,151.985C429.961,158.395 442.421,156.025 447.2,155.999C449.367,155.988 452.74,156.373 453.918,154.053C455.69,150.558 454.4,143.857 454.4,140L454.4,106.4M624,150.4C630.584,153.865 637.172,157.503 644.8,157.597C652.737,157.694 661.321,158.016 667.929,152.858C676.141,146.446 678.285,135.38 679.333,125.6C682.058,100.158 675.297,71.976 644,75.339C639.237,75.851 634.533,77.65 630.4,80L630.4,52.8C630.4,49.975 631.441,44.435 629.578,42.083C628.087,40.2 624.494,40.801 622.4,40.8C617.626,40.798 605.644,38.338 604.887,44.815C602.194,67.863 604.8,92.78 604.8,116C604.8,127.084 602.124,142.083 605.054,152.753C606.85,159.294 623.21,157.405 624,150.4M341.6,43.624C323.339,47.75 329.767,75.538 348,70.754C364.21,66.5 357.996,39.919 341.6,43.624M376.8,55.2L376.8,78.4C367.535,79.157 363.996,81.003 364,90.4C364.001,92.494 363.4,96.087 365.282,97.578C367.766,99.545 373.785,98.4 376.8,98.4C376.8,113.011 372.212,137.449 382.147,149.528C388.594,157.367 399.386,158.188 408.8,157.528C411.876,157.313 417.902,157.051 418.946,153.485C419.778,150.642 420.574,138.648 417.346,137.354C412.242,135.309 406.086,139.411 402.543,132.765C398.261,124.734 401.6,107.455 401.6,98.4C405.983,98.4 413.382,99.827 417.346,97.806C420.442,96.227 420.562,80.517 417.918,78.422C414.722,75.891 405.553,77.6 401.6,77.6L401.6,55.2L376.8,55.2M332.482,78.422C328.846,81.302 331.2,96.383 331.2,100.8L331.2,137.6C331.2,142.133 329.849,149.281 331.682,153.482C333.435,157.495 351.502,157.484 354.853,155.178C359.126,152.238 356.8,138.262 356.8,133.6L356.8,95.2C356.8,90.883 358.247,83.377 356.318,79.454C354.71,76.188 335.262,76.221 332.482,78.422M522.4,77.6L522.4,124.8C522.4,132.826 521.746,141.982 526.846,148.797C531.97,155.642 539.306,156.894 547.2,157.939L560,157.231C565.996,156.081 571.563,153.457 576.8,150.4C577.516,156.75 592.365,159.48 594.146,153.482L594.4,136L594.4,99.2C594.4,93.898 596.274,84.245 593.918,79.454C592.322,76.213 573.622,76.252 570.882,78.422C568.137,80.597 569.6,88.85 569.6,92L569.6,119.2L569.118,131.956C567.208,136.754 558.055,138.471 553.603,137.077C546.714,134.92 547.2,127.441 547.2,121.6L547.2,90.4C547.2,87.415 548.338,81.358 546.378,78.883C543.37,75.085 527.074,77.6 522.4,77.6Z" style="fill:rgb(89,89,89);"/>
        </g>
        <path d="M639.2,95.555C625.857,97.545 629.6,111.189 629.6,121.6C629.6,124.887 628.418,131.082 630.422,133.881C633.025,137.516 641.629,138.048 645.6,137.337C652.574,136.086 653.755,130.029 654.617,124C656.262,112.481 655.715,93.092 639.2,95.555Z" style="fill:rgb(252,252,252);"/>
        <path d="M40,145.6L42.4,148C42.014,146.109 41.891,145.986 40,145.6M44,150.4C44.671,152.501 45.099,152.929 47.2,153.6C46.529,151.499 46.101,151.071 44,150.4M48,156C48.902,158.273 49.589,158.794 52,159.2C51.225,156.829 50.453,156.398 48,156M55.2,160C55.975,162.371 56.747,162.802 59.2,163.2C58.425,160.829 57.653,160.398 55.2,160M70.4,163.2C73.051,163.599 73.904,163.153 75.2,160.8C72.549,160.401 71.696,160.847 70.4,163.2M63.2,161.6C64.222,164.675 66.178,164.675 67.2,161.6L63.2,161.6Z" style="fill:rgb(19,19,19);"/>
    </g>
</svg>
